<svg width="24" height="23" viewBox="0 0 24 23" fill="none" xmlns="http://www.w3.org/2000/svg">
<path d="M22.7478 1.25342H1.63501V21.0963H22.7478V1.25342Z" stroke="#EF7F1A" stroke-width="2" stroke-miterlimit="22.9256" stroke-linecap="round" stroke-linejoin="round"/>
<path d="M8.59737 14.8408V5.75031H12.0079C12.7024 5.75031 13.2584 5.84332 13.6759 6.02935C14.0976 6.21124 14.4262 6.49441 14.6618 6.87887C14.9016 7.25919 15.0215 7.65812 15.0215 8.07564C15.0215 8.46423 14.9161 8.83008 14.7053 9.1732C14.4944 9.51632 14.1761 9.79329 13.7503 10.0041C14.3001 10.1653 14.7218 10.4403 15.0153 10.8288C15.3129 11.2174 15.4618 11.6763 15.4618 12.2054C15.4618 12.6312 15.3708 13.0281 15.1889 13.396C15.0112 13.7598 14.79 14.0409 14.5254 14.2393C14.2609 14.4378 13.9281 14.5887 13.5271 14.692C13.1302 14.7912 12.6424 14.8408 12.0637 14.8408H8.59737ZM9.80034 9.57006H11.766C12.2993 9.57006 12.6817 9.53492 12.9132 9.46464C13.2191 9.3737 13.4485 9.22281 13.6015 9.01198C13.7586 8.80115 13.8371 8.53658 13.8371 8.21826C13.8371 7.91649 13.7648 7.65191 13.6201 7.42455C13.4754 7.19305 13.2687 7.03596 13 6.95328C12.7313 6.86647 12.2704 6.82306 11.6172 6.82306H9.80034V9.57006ZM9.80034 13.7681H12.0637C12.4523 13.7681 12.7251 13.7536 12.8822 13.7247C13.1592 13.6751 13.3907 13.5924 13.5767 13.4766C13.7627 13.3609 13.9157 13.1934 14.0356 12.9744C14.1554 12.7511 14.2154 12.4948 14.2154 12.2054C14.2154 11.8665 14.1286 11.5729 13.9549 11.3249C13.7813 11.0727 13.5395 10.8971 13.2294 10.7978C12.9235 10.6945 12.4812 10.6428 11.9024 10.6428H9.80034V13.7681Z" fill="#EF7F1A"/>
</svg>
