<svg width="22" height="23" viewBox="0 0 22 23" fill="none" xmlns="http://www.w3.org/2000/svg">
<path fill-rule="evenodd" clip-rule="evenodd" d="M22 11.5361V21.0695C22 21.8028 21.2667 22.5361 20.5333 22.5361H2.2C0.733333 22.5361 0 21.8028 0 21.0695V11.5361L11 16.6695L22 11.5361Z" fill="#EF7F1A"/>
<path fill-rule="evenodd" clip-rule="evenodd" d="M2.2 10.8028H3.66667V7.13613C3.66667 6.4028 4.4 5.66947 5.13333 5.66947H17.6C18.3333 5.66947 19.0667 6.4028 19.0667 7.13613V10.8028H20.5333C21.2667 10.8028 22 10.0695 22 9.33613V5.66947L11 0.536133L0 5.66947V9.33613C0 10.0695 0.733333 10.8028 2.2 10.8028Z" fill="#EF7F1A"/>
</svg>
