<svg width="24" height="26" viewBox="0 0 24 26" fill="none" xmlns="http://www.w3.org/2000/svg">
<path d="M22.8775 1.25342H1.76465V21.0963H22.8775V1.25342Z" stroke="#EF7F1A" stroke-width="2" stroke-miterlimit="22.9256" stroke-linecap="round" stroke-linejoin="round"/>
<path d="M13.6502 20.5391V11.0833H12.0196V9.64748H13.6502V8.48858C13.6502 7.75701 13.7152 7.21345 13.8451 6.85792C14.0229 6.37932 14.3339 5.99302 14.7784 5.69902C15.2296 5.39819 15.8586 5.24777 16.6654 5.24777C17.185 5.24777 17.7594 5.30931 18.3884 5.43238L18.1115 7.04252C17.7286 6.97415 17.3662 6.93997 17.0244 6.93997C16.4637 6.93997 16.0672 7.05962 15.8347 7.29892C15.6022 7.53822 15.486 7.98605 15.486 8.64242V9.64748H17.6089V11.0833H15.486V20.5391H13.6502Z" fill="#EF7F1A"/>
</svg>
