<svg width="24" height="23" viewBox="0 0 24 23" fill="none" xmlns="http://www.w3.org/2000/svg">
<path d="M22.9597 1.25342H1.84692V21.0963H22.9597V1.25342Z" stroke="#EF7F1A" stroke-width="2" stroke-miterlimit="22.9256" stroke-linecap="round" stroke-linejoin="round"/>
<path d="M12.4826 15.3817C14.8497 15.3817 16.7687 13.4628 16.7687 11.0956C16.7687 8.72851 14.8497 6.80957 12.4826 6.80957C10.1155 6.80957 8.19653 8.72851 8.19653 11.0956C8.19653 13.4628 10.1155 15.3817 12.4826 15.3817Z" stroke="#EF7F1A" stroke-width="2" stroke-miterlimit="22.9256" stroke-linecap="round" stroke-linejoin="round"/>
<path d="M19.6262 5.85696C20.0646 5.85696 20.42 5.5016 20.42 5.06325C20.42 4.62489 20.0646 4.26953 19.6262 4.26953C19.1879 4.26953 18.8325 4.62489 18.8325 5.06325C18.8325 5.5016 19.1879 5.85696 19.6262 5.85696Z" stroke="#EF7F1A" stroke-width="2" stroke-miterlimit="22.9256" stroke-linecap="round" stroke-linejoin="round"/>
</svg>
