<svg width="25" height="28" viewBox="0 0 25 28" fill="none" xmlns="http://www.w3.org/2000/svg">
<path fill-rule="evenodd" clip-rule="evenodd" d="M4.6875 0.661133C4.6875 0.661133 3.90625 0.661133 3.90625 1.44238C3.125 1.44238 3.125 2.22363 2.34375 2.22363C2.34375 3.00488 2.34375 3.00488 1.5625 3.00488V4.56738C0.78125 4.56738 0.78125 4.56738 0.78125 4.56738C0.78125 4.56738 0.78125 4.56738 0.78125 5.34863V6.12988C0 6.12988 0 6.12988 0 6.91113V7.69238C0 8.47363 0 8.47363 0 8.47363C0 8.47363 0 8.47363 0 9.25488V10.0361C0 10.8174 0 10.8174 0 10.8174L0.78125 11.5986C0.78125 12.3799 0.78125 12.3799 0.78125 12.3799V13.1611L1.5625 13.9424C1.5625 14.7236 1.5625 14.7236 1.5625 14.7236C1.5625 14.7236 1.5625 14.7236 1.5625 15.5049H2.34375V16.2861C2.34375 16.2861 2.34375 16.2861 3.125 16.2861V17.0674L3.90625 17.8486C3.90625 17.8486 3.90625 17.8486 3.90625 18.6299C4.6875 18.6299 3.90625 18.6299 3.90625 18.6299C4.6875 18.6299 4.6875 19.4111 5.46875 19.4111L6.25 20.9736L7.03125 21.7549C7.8125 22.5361 7.8125 21.7549 7.8125 22.5361C7.8125 22.5361 8.59375 22.5361 8.59375 23.3174L10.1562 24.0986C10.1562 24.0986 10.1562 24.0986 10.1562 24.8799C10.1562 24.8799 10.1562 24.8799 10.9375 24.8799C11.7188 24.8799 10.9375 24.8799 11.7188 24.8799L12.5 25.6611C13.2812 25.6611 13.2812 26.4424 13.2812 26.4424H14.0625C14.8438 26.4424 14.8438 26.4424 14.8438 26.4424C14.8438 26.4424 14.8438 26.4424 15.625 26.4424L16.4062 27.2236H17.9688L19.5312 26.4424H20.3125C20.3125 26.4424 20.3125 26.4424 21.0938 25.6611C21.875 25.6611 21.875 25.6611 21.875 25.6611L22.6562 24.8799C22.6562 24.0986 22.6562 24.0986 23.4375 24.0986L24.2188 23.3174C24.2188 23.3174 24.2188 23.3174 24.2188 22.5361V21.7549C24.2188 20.9736 24.2188 20.9736 24.2188 20.9736C23.4375 20.9736 23.4375 20.9736 23.4375 20.9736C23.4375 20.1924 23.4375 20.9736 23.4375 20.1924C22.6562 20.1924 22.6562 20.1924 22.6562 20.1924C22.6562 19.4111 22.6562 19.4111 22.6562 19.4111C22.6562 19.4111 22.6562 19.4111 21.875 19.4111L20.3125 17.8486H19.5312L18.75 17.0674L17.9688 17.8486H17.1875C17.1875 17.8486 17.1875 17.8486 16.4062 18.6299H15.625C15.625 19.4111 14.8438 19.4111 14.8438 20.1924H14.0625H13.2812C13.2812 20.1924 12.5 20.1924 12.5 19.4111C12.5 19.4111 12.5 19.4111 11.7188 19.4111L10.1562 17.8486C10.1562 17.0674 8.59375 16.2861 8.59375 15.5049C7.8125 15.5049 8.59375 15.5049 7.8125 15.5049C7.8125 15.5049 7.8125 15.5049 7.8125 14.7236L7.03125 13.9424V13.1611C6.25 12.3799 6.25 11.5986 6.25 11.5986C6.25 10.8174 7.03125 10.8174 7.03125 10.0361C7.03125 10.0361 7.03125 10.0361 7.8125 10.0361L8.59375 9.25488C8.59375 8.47363 8.59375 8.47363 8.59375 8.47363C9.375 7.69238 10.1562 7.69238 9.375 6.91113V6.12988V5.34863V4.56738L8.59375 3.78613L7.8125 3.00488C7.8125 2.22363 7.8125 2.22363 7.8125 2.22363H7.03125V1.44238C7.03125 1.44238 6.25 1.44238 6.25 0.661133H5.46875H4.6875V0.661133ZM12.5 10.0361H13.2812C13.2812 10.0361 14.0625 10.8174 14.8438 10.8174H15.625C15.625 11.5986 16.4062 11.5986 16.4062 11.5986V12.3799C16.4062 12.3799 17.1875 12.3799 17.1875 13.1611V13.9424C17.1875 13.9424 17.1875 13.9424 17.1875 14.7236L17.9688 15.5049H20.3125V14.7236L19.5312 13.9424V13.1611V12.3799C19.5312 12.3799 19.5312 12.3799 19.5312 11.5986H18.75V10.8174H17.9688C17.9688 10.0361 17.9688 10.8174 17.9688 10.0361C17.1875 10.0361 17.1875 10.0361 17.1875 9.25488C16.4062 9.25488 16.4062 9.25488 16.4062 9.25488C16.4062 8.47363 14.8438 8.47363 14.8438 8.47363H14.0625L13.2812 7.69238H12.5V10.0361ZM12.5 5.34863H13.2812H14.0625C14.0625 5.34863 14.0625 5.34863 14.0625 6.12988H14.8438C15.625 6.12988 15.625 6.12988 16.4062 6.12988C16.4062 6.12988 17.1875 6.91113 17.9688 6.91113L18.75 7.69238C19.5312 7.69238 18.75 7.69238 19.5312 7.69238C19.5312 8.47363 19.5312 8.47363 19.5312 8.47363C20.3125 8.47363 20.3125 8.47363 20.3125 9.25488L21.0938 10.0361L21.875 11.5986C21.875 12.3799 21.875 12.3799 21.875 13.1611L22.6562 13.9424V15.5049H23.4375C24.2188 14.7236 24.2188 15.5049 25 15.5049V14.7236V13.9424L24.2188 13.1611V12.3799V11.5986V10.8174L23.4375 10.0361C23.4375 10.0361 23.4375 10.0361 23.4375 9.25488C22.6562 9.25488 22.6562 8.47363 22.6562 8.47363C22.6562 8.47363 22.6562 8.47363 22.6562 7.69238C22.6562 7.69238 22.6562 7.69238 21.875 7.69238C21.875 6.91113 21.875 6.91113 21.875 6.91113C21.875 6.91113 21.875 6.91113 21.0938 6.91113C21.0938 6.91113 21.0938 6.91113 21.0938 6.12988C20.3125 6.12988 20.3125 6.12988 20.3125 6.12988C20.3125 5.34863 20.3125 5.34863 20.3125 5.34863H19.5312C19.5312 5.34863 18.75 5.34863 18.75 4.56738H17.9688C17.9688 4.56738 17.9688 4.56738 17.1875 4.56738C17.1875 3.78613 17.1875 3.78613 17.1875 3.78613H16.4062H15.625H14.8438V3.00488H14.0625C13.2813 3.00488 13.2812 3.00488 13.2812 3.00488H12.5V5.34863Z" fill="#EF7F1A"/>
</svg>
